<svg width="64" height="64" viewBox="0 0 64 64" fill="none" xmlns="http://www.w3.org/2000/svg">
    <path
        d="M43.014 22.863L44.9249 20.9525C44.9249 20.2446 44.9249 19.5556 44.9249 18.8948L39.4208 22.8411L33.2901 27.2258C33.265 24.9176 33.2399 22.174 33.2274 18.8509V16.6178H43.0516V14.0527H35.3357L34.0513 15.3368H33.2305L33.265 6.80218L34.4899 5.57758L31.9837 3.07199L29.4776 5.57758L30.7024 6.80218L30.7369 15.3337H29.913L28.6286 14.0496H20.8877V16.6147H30.7118V18.5346C30.7118 21.9986 30.6743 24.8424 30.6492 27.2227L25.6839 23.6648L19.0112 18.8822C19.0112 19.5086 19.0112 20.1883 19.0112 20.871L20.9911 22.8505L19.0081 24.833C19.0989 32.5252 20.0074 41.2258 26.5453 44.7618C23.256 39.3184 21.6771 37.1887 21.5142 23.7243L30.6241 30.2513C30.6241 43.6562 30.6586 54.6094 31.9649 60.864C33.2713 54.6 33.3089 43.6343 33.3089 30.2513L35.1885 28.9046L42.4188 23.7243C42.2527 36.8567 40.677 39.3215 37.3908 44.7587C43.9475 41.2195 44.8435 32.5001 44.9281 24.7641L43.014 22.863Z"
        fill="#FD7221" />
</svg>
